<svg width="154" height="27" viewBox="0 0 154 27" fill="none" xmlns="http://www.w3.org/2000/svg">
<g clip-path="url(#clip0_327_1529)">
<path d="M23.1527 20.6945H31.1478L11.3423 0.888916H3.34717L23.1527 20.6945Z" fill="#0078BE"/>
<path d="M15.4497 0.888917L34.5419 19.9811V0.888916H29.3752V6.91668L23.3474 0.888916L15.4497 0.888917Z" fill="#FCB141"/>
<path d="M0 1.55188V20.6943H5.16667V14.6665L11.1944 20.6943H19.1425L0 1.55188Z" fill="#00B9F0"/>
<path d="M47.0096 17.7165H51.6389V20.4445H43.4756V5.93652H47.0096V17.7165Z" fill="#182958"/>
<path d="M57.954 20.6098C56.8242 20.6098 55.8046 20.3687 54.8953 19.8864C53.9997 19.4042 53.2902 18.7153 52.7666 17.8198C52.2569 16.9242 52.002 15.8771 52.002 14.6784C52.002 13.4936 52.2637 12.4533 52.7873 11.5578C53.3109 10.6484 54.0273 9.95262 54.9366 9.4704C55.846 8.98818 56.8655 8.74707 57.9953 8.74707C59.1251 8.74707 60.1446 8.98818 61.054 9.4704C61.9633 9.95262 62.6797 10.6484 63.2033 11.5578C63.7269 12.4533 63.9886 13.4936 63.9886 14.6784C63.9886 15.8633 63.72 16.9104 63.1826 17.8198C62.6591 18.7153 61.9356 19.4042 61.0126 19.8864C60.1033 20.3687 59.0837 20.6098 57.954 20.6098ZM57.954 17.5511C58.6291 17.5511 59.2009 17.3031 59.6693 16.8071C60.1515 16.3111 60.3926 15.6016 60.3926 14.6784C60.3926 13.7553 60.1584 13.0458 59.69 12.5498C59.2353 12.0538 58.6704 11.8058 57.9953 11.8058C57.3064 11.8058 56.7346 12.0538 56.28 12.5498C55.8253 13.032 55.5979 13.7416 55.5979 14.6784C55.5979 15.6016 55.8184 16.3111 56.2593 16.8071C56.714 17.3031 57.2789 17.5511 57.954 17.5511Z" fill="#182958"/>
<path d="M69.625 8.74707C70.4379 8.74707 71.1475 8.9124 71.7537 9.24307C72.3737 9.57374 72.849 10.0078 73.1797 10.5451V8.9124H76.7137V20.4238C76.7137 21.4847 76.5001 22.4422 76.073 23.2964C75.6597 24.1644 75.019 24.8533 74.151 25.3631C73.2968 25.8729 72.229 26.1278 70.9477 26.1278C69.2392 26.1278 67.8546 25.7213 66.7937 24.9084C65.7328 24.1093 65.1266 23.0209 64.975 21.6431H68.4677C68.5779 22.084 68.8397 22.4284 69.253 22.6764C69.6664 22.9382 70.1761 23.0691 70.7824 23.0691C71.5126 23.0691 72.0912 22.8556 72.5184 22.4284C72.9592 22.0151 73.1797 21.3469 73.1797 20.4238V18.7911C72.8352 19.3284 72.3599 19.7693 71.7537 20.1138C71.1475 20.4444 70.4379 20.6098 69.625 20.6098C68.6744 20.6098 67.8132 20.3687 67.0417 19.8864C66.2701 19.3904 65.657 18.6947 65.2024 17.7991C64.7615 16.8898 64.541 15.8427 64.541 14.6578C64.541 13.4729 64.7615 12.4327 65.2024 11.5371C65.657 10.6416 66.2701 9.95262 67.0417 9.4704C67.8132 8.98818 68.6744 8.74707 69.625 8.74707ZM73.1797 14.6784C73.1797 13.7967 72.9317 13.1009 72.4357 12.5911C71.9535 12.0813 71.361 11.8264 70.6584 11.8264C69.9557 11.8264 69.3564 12.0813 68.8604 12.5911C68.3781 13.0871 68.137 13.776 68.137 14.6578C68.137 15.5396 68.3781 16.2422 68.8604 16.7658C69.3564 17.2756 69.9557 17.5304 70.6584 17.5304C71.361 17.5304 71.9535 17.2756 72.4357 16.7658C72.9317 16.256 73.1797 15.5602 73.1797 14.6784Z" fill="#182958"/>
<path d="M83.8997 20.6098C82.7699 20.6098 81.7504 20.3687 80.841 19.8864C79.9455 19.4042 79.236 18.7153 78.7125 17.8198C78.2027 16.9242 77.9478 15.8771 77.9478 14.6784C77.9478 13.4936 78.2096 12.4533 78.7331 11.5578C79.2567 10.6484 79.9731 9.95262 80.8825 9.4704C81.7918 8.98818 82.8114 8.74707 83.9411 8.74707C85.0709 8.74707 86.0905 8.98818 86.9998 9.4704C87.9091 9.95262 88.6256 10.6484 89.1491 11.5578C89.6727 12.4533 89.9345 13.4936 89.9345 14.6784C89.9345 15.8633 89.6658 16.9104 89.1285 17.8198C88.6049 18.7153 87.8815 19.4042 86.9585 19.8864C86.0491 20.3687 85.0295 20.6098 83.8997 20.6098ZM83.8997 17.5511C84.5748 17.5511 85.1467 17.3031 85.6151 16.8071C86.0974 16.3111 86.3385 15.6016 86.3385 14.6784C86.3385 13.7553 86.1042 13.0458 85.6357 12.5498C85.181 12.0538 84.6163 11.8058 83.9411 11.8058C83.2523 11.8058 82.6805 12.0538 82.2258 12.5498C81.7711 13.032 81.5438 13.7416 81.5438 14.6784C81.5438 15.6016 81.7643 16.3111 82.2051 16.8071C82.6598 17.3031 83.2246 17.5511 83.8997 17.5511Z" fill="#182958"/>
<path d="M92.9664 7.71372C92.3464 7.71372 91.8366 7.5346 91.437 7.17638C91.0513 6.80438 90.8584 6.34972 90.8584 5.81238C90.8584 5.26127 91.0513 4.8066 91.437 4.44838C91.8366 4.07638 92.3464 3.89038 92.9664 3.89038C93.5726 3.89038 94.0686 4.07638 94.4544 4.44838C94.8539 4.8066 95.0537 5.26127 95.0537 5.81238C95.0537 6.34972 94.8539 6.80438 94.4544 7.17638C94.0686 7.5346 93.5726 7.71372 92.9664 7.71372ZM94.723 8.91238V20.4443H91.189V8.91238H94.723Z" fill="#182958"/>
<path d="M100.198 10.5451C100.543 10.0078 101.018 9.57374 101.624 9.24307C102.23 8.9124 102.94 8.74707 103.753 8.74707C104.704 8.74707 105.565 8.98818 106.336 9.4704C107.108 9.95262 107.714 10.6416 108.155 11.5371C108.61 12.4327 108.837 13.4729 108.837 14.6578C108.837 15.8427 108.61 16.8898 108.155 17.7991C107.714 18.6947 107.108 19.3904 106.336 19.8864C105.565 20.3687 104.704 20.6098 103.753 20.6098C102.954 20.6098 102.244 20.4444 101.624 20.1138C101.018 19.7831 100.543 19.356 100.198 18.8324V25.9418H96.6641V8.9124H100.198V10.5451ZM105.241 14.6578C105.241 13.776 104.993 13.0871 104.497 12.5911C104.015 12.0813 103.415 11.8264 102.699 11.8264C101.996 11.8264 101.397 12.0813 100.901 12.5911C100.419 13.1009 100.178 13.7967 100.178 14.6784C100.178 15.5602 100.419 16.256 100.901 16.7658C101.397 17.2756 101.996 17.5304 102.699 17.5304C103.402 17.5304 104.001 17.2756 104.497 16.7658C104.993 16.2422 105.241 15.5396 105.241 14.6578Z" fill="#182958"/>
<path d="M114.762 20.6098C113.756 20.6098 112.861 20.4376 112.076 20.0931C111.29 19.7487 110.67 19.2802 110.216 18.6878C109.761 18.0816 109.506 17.4064 109.451 16.6624H112.944C112.985 17.062 113.171 17.3858 113.502 17.6338C113.832 17.8818 114.239 18.0058 114.721 18.0058C115.162 18.0058 115.499 17.9231 115.734 17.7578C115.982 17.5787 116.106 17.3513 116.106 17.0758C116.106 16.7451 115.933 16.504 115.589 16.3524C115.244 16.1871 114.686 16.008 113.915 15.8151C113.088 15.6222 112.399 15.4224 111.848 15.2158C111.297 14.9953 110.822 14.6578 110.422 14.2031C110.023 13.7347 109.823 13.1078 109.823 12.3224C109.823 11.6611 110.002 11.0618 110.36 10.5244C110.732 9.97329 111.27 9.53929 111.972 9.2224C112.689 8.90551 113.536 8.74707 114.514 8.74707C115.961 8.74707 117.098 9.10529 117.924 9.82174C118.765 10.5382 119.247 11.4889 119.371 12.6738H116.106C116.05 12.2742 115.871 11.9573 115.568 11.7231C115.279 11.4889 114.893 11.3718 114.411 11.3718C113.998 11.3718 113.681 11.4544 113.46 11.6198C113.24 11.7713 113.13 11.9849 113.13 12.2604C113.13 12.5911 113.302 12.8391 113.646 13.0044C114.004 13.1698 114.556 13.3351 115.3 13.5004C116.154 13.7209 116.85 13.9413 117.387 14.1618C117.924 14.3684 118.393 14.7129 118.792 15.1951C119.206 15.6636 119.419 16.2973 119.433 17.0964C119.433 17.7716 119.24 18.3778 118.854 18.9151C118.482 19.4387 117.938 19.852 117.222 20.1551C116.519 20.4582 115.699 20.6098 114.762 20.6098Z" fill="#182958"/>
<path d="M132.362 8.91248V20.4444H128.828V18.8738C128.47 19.3836 127.981 19.7969 127.361 20.1138C126.755 20.4169 126.08 20.5684 125.336 20.5684C124.454 20.5684 123.675 20.3756 123 19.9898C122.325 19.5902 121.802 19.0184 121.43 18.2744C121.058 17.5304 120.872 16.6556 120.872 15.6498V8.91248H124.385V15.1744C124.385 15.946 124.585 16.5453 124.984 16.9724C125.384 17.3996 125.921 17.6131 126.596 17.6131C127.285 17.6131 127.829 17.3996 128.229 16.9724C128.629 16.5453 128.828 15.946 128.828 15.1744V8.91248H132.362Z" fill="#182958"/>
<path d="M148.995 8.78845C150.428 8.78845 151.565 9.22245 152.405 10.0904C153.26 10.9584 153.687 12.164 153.687 13.7071V20.4444H150.173V14.1824C150.173 13.4384 149.974 12.8667 149.574 12.4671C149.188 12.0538 148.651 11.8471 147.962 11.8471C147.273 11.8471 146.729 12.0538 146.329 12.4671C145.944 12.8667 145.751 13.4384 145.751 14.1824V20.4444H142.237V14.1824C142.237 13.4384 142.038 12.8667 141.638 12.4671C141.252 12.0538 140.715 11.8471 140.026 11.8471C139.337 11.8471 138.793 12.0538 138.393 12.4671C138.008 12.8667 137.815 13.4384 137.815 14.1824V20.4444H134.281V8.91245H137.815V10.3591C138.173 9.8769 138.641 9.49801 139.22 9.22245C139.799 8.93312 140.453 8.78845 141.183 8.78845C142.051 8.78845 142.823 8.97445 143.498 9.34645C144.187 9.71845 144.724 10.2489 145.11 10.9378C145.51 10.304 146.054 9.78734 146.743 9.38779C147.432 8.98823 148.183 8.78845 148.995 8.78845Z" fill="#182958"/>
</g>
<defs>
<clipPath id="clip0_327_1529">
<rect width="154" height="27" fill="white"/>
</clipPath>
</defs>
</svg>
